<?xml version="1.0" encoding="UTF-8" standalone="no"?><svg xmlns="http://www.w3.org/2000/svg" fill="none"><defs><symbol viewBox="0 0 24 24" fill-rule="evenodd" clip-rule="evenodd" stroke-linecap="round" stroke-linejoin="round" stroke-miterlimit="1.5" id="add"><path d="M12,19l0,-14" fill="none" stroke="var(--icon-primary)" stroke-width="var(--icon-stroke)"/><path d="M5,12l14,-0" fill="none" stroke="var(--icon-primary)" stroke-width="var(--icon-stroke)"/></symbol><symbol viewBox="0 0 24 24" fill-rule="evenodd" clip-rule="evenodd" stroke-linecap="round" stroke-linejoin="round" stroke-miterlimit="1.5" id="delete"><path d="M18,9l0,10.8c0,0.662 -0.538,1.2 -1.2,1.2l-9.6,-0c-0.662,-0 -1.2,-0.538 -1.2,-1.2l-0,-10.8" fill="none" stroke="var(--icon-primary)" stroke-width="var(--icon-stroke)"/><path d="M4,6l16,0" fill="none" stroke="var(--icon-primary)" stroke-width="var(--icon-stroke)"/><path d="M14.5,6l0,-2l-4.5,0l0,2" fill="none" stroke="var(--icon-primary)" stroke-width="var(--icon-stroke)"/><path d="M12,10l0,9" fill="none" stroke="var(--icon-primary)" stroke-width="var(--icon-stroke)"/><path d="M15,10l0,9" fill="none" stroke="var(--icon-primary)" stroke-width="var(--icon-stroke)"/><path d="M9,10l0,9" fill="none" stroke="var(--icon-primary)" stroke-width="var(--icon-stroke)"/></symbol><symbol viewBox="0 0 24 24" fill-rule="evenodd" clip-rule="evenodd" stroke-linecap="round" stroke-linejoin="round" stroke-miterlimit="1.5" id="download"><path d="M3,18l0,3l18,-0l0,-3" fill="none" stroke="var(--icon-primary)" stroke-width="var(--icon-stroke)"/><path d="M6,12l6,6l6,-6" fill="none" stroke="var(--icon-primary)" stroke-width="var(--icon-stroke)"/><path d="M12,18l0,-14" fill="none" stroke="var(--icon-primary)" stroke-width="var(--icon-stroke)"/></symbol><symbol viewBox="0 0 24 24" fill-rule="evenodd" clip-rule="evenodd" stroke-linecap="round" stroke-linejoin="round" stroke-miterlimit="1.5" id="light-bulb"><path d="M15.193,11.205c0.415,0.614 0.657,1.354 0.657,2.15c0,2.125 -1.725,3.85 -3.85,3.85c-2.125,0 -3.85,-1.725 -3.85,-3.85c-0,-0.796 0.242,-1.536 0.656,-2.15c0.015,-0.021 0.029,-0.042 0.044,-0.062c0.494,-0.72 0.854,-1.322 1.05,-1.792l-0,-4.146l0.809,0c-0,-0.665 0.578,-1.205 1.291,-1.205c0.713,0 1.291,0.54 1.291,1.205l0.809,0l-0,4.147c0.197,0.47 0.556,1.071 1.05,1.791c0.015,0.02 0.029,0.041 0.043,0.062Z" fill="none" stroke="var(--icon-primary)" stroke-width="var(--icon-stroke)"/><path d="M9.9,9.351l4.223,0" fill="none" stroke="var(--icon-primary)" stroke-width="var(--icon-stroke)"/><path d="M9.9,7.205l4.1,-1" fill="none" stroke="var(--icon-primary)" stroke-width="var(--icon-stroke)"/><path d="M9.9,8.557l4.2,-0.852" fill="none" stroke="var(--icon-primary)" stroke-width="var(--icon-stroke)"/></symbol><symbol viewBox="0 0 24 24" fill-rule="evenodd" clip-rule="evenodd" stroke-linecap="round" stroke-linejoin="round" stroke-miterlimit="1.5" id="list"><rect x="3.5" y="11.5" width="17" height="2" fill="none" stroke="var(--icon-primary)" stroke-width="var(--icon-stroke)"/><rect x="3.5" y="6.5" width="17" height="2" fill="none" stroke="var(--icon-primary)" stroke-width="var(--icon-stroke)"/><rect x="3.5" y="16.5" width="17" height="2" fill="none" stroke="var(--icon-primary)" stroke-width="var(--icon-stroke)"/></symbol><symbol viewBox="0 0 24 24" fill-rule="evenodd" clip-rule="evenodd" stroke-linecap="round" stroke-linejoin="round" stroke-miterlimit="1.5" id="loupe"><path d="M17.905,6.095c2.146,2.147 2.146,5.632 -0,7.778c-2.147,2.147 -5.632,2.147 -7.778,0c-2.147,-2.146 -2.147,-5.631 -0,-7.778c2.146,-2.146 5.631,-2.146 7.778,0Z" fill="none" stroke="var(--icon-primary)" stroke-width="var(--icon-stroke)"/><path d="M9.95,14.05l-4.95,4.95" fill="none" stroke="var(--icon-primary)" stroke-width="var(--icon-stroke)"/></symbol><symbol viewBox="0 0 24 24" fill-rule="evenodd" clip-rule="evenodd" stroke-linecap="round" stroke-linejoin="round" stroke-miterlimit="1.5" id="loupe-minus"><path d="M17.015,10l-6,0" fill="none" stroke="var(--icon-primary)" stroke-width="var(--icon-stroke)"/></symbol><symbol viewBox="0 0 24 24" fill-rule="evenodd" clip-rule="evenodd" stroke-linecap="round" stroke-linejoin="round" stroke-miterlimit="1.5" id="loupe-plus"><path d="M14.016,7l-0,6" fill="none" stroke="var(--icon-primary)" stroke-width="var(--icon-stroke)"/><path d="M17.015,10l-6,0" fill="none" stroke="var(--icon-primary)" stroke-width="var(--icon-stroke)"/></symbol><symbol viewBox="0 0 24 24" fill-rule="evenodd" clip-rule="evenodd" stroke-linecap="round" stroke-linejoin="round" stroke-miterlimit="1.5" id="rays"><path d="M4.5,14l2,0" fill="none" stroke="var(--icon-primary)" stroke-width="var(--icon-stroke)"/><path d="M17.5,14l2,0" fill="none" stroke="var(--icon-primary)" stroke-width="var(--icon-stroke)"/><path d="M12,19.5l-0,2" fill="none" stroke="var(--icon-primary)" stroke-width="var(--icon-stroke)"/><path d="M6.697,8.697l1.414,1.414" fill="none" stroke="var(--icon-primary)" stroke-width="var(--icon-stroke)"/><path d="M15.889,17.889l1.414,1.414" fill="none" stroke="var(--icon-primary)" stroke-width="var(--icon-stroke)"/><path d="M17.303,8.697l-1.414,1.414" fill="none" stroke="var(--icon-primary)" stroke-width="var(--icon-stroke)"/><path d="M8.111,17.889l-1.414,1.414" fill="none" stroke="var(--icon-primary)" stroke-width="var(--icon-stroke)"/></symbol><symbol viewBox="0 0 24 24" fill-rule="evenodd" clip-rule="evenodd" stroke-linecap="round" stroke-linejoin="round" stroke-miterlimit="1.5" id="redo"><path d="M17.18,9.486c-0,-0 -2.637,-2.637 -3.302,-3.302c-3.141,-3.141 -9.603,0.373 -6.603,5.778c1.976,3.562 4.127,6.603 4.127,6.603" fill="none" stroke="var(--icon-primary)" stroke-width="var(--icon-stroke)"/><path d="M16.722,5l0.458,4.486l-4.458,0.014" fill="none" stroke="var(--icon-primary)" stroke-width="var(--icon-stroke)"/></symbol><symbol viewBox="0 0 24 24" fill-rule="evenodd" clip-rule="evenodd" stroke-linecap="round" stroke-linejoin="round" stroke-miterlimit="1.5" id="selection"><rect x="4" y="4" width="13" height="13" fill="none" stroke="var(--icon-primary)" stroke-width="var(--icon-stroke)"/><path d="M8,19l11,-0l0,-11l2,0l0,13l-13,0l0,-2Z" fill="none" stroke="var(--icon-primary)" stroke-width="var(--icon-stroke)"/><path d="M6,17l11,-0l0,-11l2,0l0,13l-13,-0l0,-2Z" fill="none" stroke="var(--icon-primary)" stroke-width="var(--icon-stroke)"/></symbol><symbol viewBox="0 0 24 24" fill-rule="evenodd" clip-rule="evenodd" stroke-linecap="round" stroke-linejoin="round" stroke-miterlimit="1.5" id="selection-tick"><path d="M6.5,10.5l3,3l5,-6" fill="none" stroke="var(--icon-primary)" stroke-width="var(--icon-stroke)"/></symbol><symbol viewBox="0 0 24 24" fill-rule="evenodd" clip-rule="evenodd" stroke-linecap="round" stroke-linejoin="round" stroke-miterlimit="1.5" id="settings"><path d="M4.367,10.5c0.202,-1.033 0.609,-1.993 1.176,-2.836l-1.321,-1.321l2.121,-2.121l1.321,1.321c0.843,-0.567 1.803,-0.974 2.836,-1.176l0,-1.867l3,0l0,1.867c1.033,0.202 1.993,0.609 2.836,1.176l1.321,-1.321l2.121,2.121l-1.321,1.321c0.567,0.843 0.974,1.803 1.176,2.836l1.867,-0l0,3l-1.867,-0c-0.202,1.033 -0.609,1.993 -1.176,2.836l1.321,1.321l-2.121,2.121l-1.321,-1.321c-0.843,0.567 -1.803,0.974 -2.836,1.176l0,1.867l-3,0l0,-1.867c-1.033,-0.202 -1.993,-0.609 -2.836,-1.176l-1.321,1.321l-2.121,-2.121l1.321,-1.321c-0.567,-0.843 -0.974,-1.803 -1.176,-2.836l-1.867,-0l0,-3l1.867,-0Zm7.633,-3c-2.484,0 -4.5,2.016 -4.5,4.5c0,2.484 2.016,4.5 4.5,4.5c2.484,-0 4.5,-2.016 4.5,-4.5c0,-2.484 -2.016,-4.5 -4.5,-4.5Z" fill="none" stroke="var(--icon-primary)" stroke-width="var(--icon-stroke)"/></symbol><symbol viewBox="0 0 24 24" fill-rule="evenodd" clip-rule="evenodd" stroke-linecap="round" stroke-linejoin="round" stroke-miterlimit="1.5" id="tiles"><rect x="4.5" y="4.5" width="7" height="7" fill="none" stroke="var(--icon-primary)" stroke-width="var(--icon-stroke)"/><rect x="13.5" y="4.5" width="7" height="7" fill="none" stroke="var(--icon-primary)" stroke-width="var(--icon-stroke)"/><rect x="4.5" y="13.5" width="7" height="7" fill="none" stroke="var(--icon-primary)" stroke-width="var(--icon-stroke)"/><rect x="13.5" y="13.5" width="7" height="7" fill="none" stroke="var(--icon-primary)" stroke-width="var(--icon-stroke)"/></symbol><symbol viewBox="0 0 24 24" fill-rule="evenodd" clip-rule="evenodd" stroke-linecap="round" stroke-linejoin="round" stroke-miterlimit="1.5" id="undo"><path d="M6.66,9.486c0,-0 2.637,-2.637 3.302,-3.302c3.141,-3.141 9.603,0.373 6.603,5.778c-1.976,3.562 -4.127,6.603 -4.127,6.603" fill="none" stroke="var(--icon-primary)" stroke-width="var(--icon-stroke)"/><path d="M7.118,5l-0.458,4.486l4.458,0.014" fill="none" stroke="var(--icon-primary)" stroke-width="var(--icon-stroke)"/></symbol><symbol viewBox="0 0 24 24" fill-rule="evenodd" clip-rule="evenodd" stroke-linecap="round" stroke-linejoin="round" stroke-miterlimit="1.5" id="x"><path d="M17,7.002l-9.998,9.998" fill="none" stroke="var(--icon-primary)" stroke-width="var(--icon-stroke)"/><path d="M16.998,16.998l-9.998,-9.998" fill="none" stroke="var(--icon-primary)" stroke-width="var(--icon-stroke)"/></symbol></defs></svg>