<?xml version="1.0" encoding="UTF-8" standalone="no"?>
<!DOCTYPE svg PUBLIC "-//W3C//DTD SVG 1.1//EN" "http://www.w3.org/Graphics/SVG/1.1/DTD/svg11.dtd">
<svg width="100%" height="100%" viewBox="0 0 182 38" version="1.1" xmlns="http://www.w3.org/2000/svg" xmlns:xlink="http://www.w3.org/1999/xlink" xml:space="preserve" xmlns:serif="http://www.serif.com/" style="fill-rule:evenodd;clip-rule:evenodd;stroke-linejoin:round;stroke-miterlimit:2;">
    <rect id="Artboard1" x="0" y="0" width="182" height="38" style="fill:none;"/>
    <g id="Artboard11" serif:id="Artboard1">
        <path d="M28.27,3.039c8.756,5.055 11.761,16.268 6.705,25.024c-5.055,8.756 -16.268,11.76 -25.024,6.705c-8.756,-5.055 -11.76,-16.268 -6.705,-25.024c5.055,-8.756 16.268,-11.761 25.024,-6.705Z" style="fill:url(#_Radial1);"/>
        <path d="M27.488,2.612c0.263,0.135 0.523,0.277 0.782,0.427c0.827,0.477 1.602,1.009 2.324,1.588c-3.28,1.422 -5.861,5.324 -2.99,15.267c3.379,11.699 -9.179,13.632 -20.011,13.257c-0.994,-0.802 -1.888,-1.695 -2.674,-2.659c7.024,-1.636 14.07,-5.719 10.699,-15.788c-3.561,-10.638 4.494,-12.445 11.87,-12.092Z" style="fill:url(#_Radial2);"/>
        <path d="M26.849,19.458c-2.871,-9.943 0.457,-13.366 3.745,-14.831c-3.28,1.422 -5.861,5.324 -2.99,15.267c3.379,11.699 -9.179,13.632 -20.011,13.257c-0.173,-0.14 -0.344,-0.282 -0.511,-0.428c10.775,0.337 23.12,-1.654 19.767,-13.265Z" style="fill:url(#_Linear3);"/>
        <path d="M27.488,2.612c0.263,0.135 0.523,0.277 0.782,0.427c0.111,0.063 0.22,0.128 0.329,0.194c-0.15,-0.082 -0.3,-0.162 -0.45,-0.24c-7.376,-0.353 -15.431,1.455 -11.87,12.092c3.356,10.026 -3.971,14.222 -10.967,15.872c-0.134,-0.153 -0.265,-0.308 -0.393,-0.465c7.024,-1.636 14.07,-5.719 10.699,-15.788c-3.561,-10.638 4.494,-12.445 11.87,-12.092Z" style="fill:url(#_Radial4);"/>
        <g transform="matrix(0.630249,0,0,0.630249,-193.128,-380.949)">
            <g transform="matrix(48,0,0,48,372.736,651.603)">
                <path d="M0.283,0.01c-0.048,-0 -0.091,-0.008 -0.128,-0.024c-0.037,-0.016 -0.072,-0.041 -0.107,-0.075c-0.008,-0.007 -0.012,-0.015 -0.012,-0.024c-0,-0.008 0.003,-0.015 0.009,-0.022c0.007,-0.007 0.014,-0.01 0.022,-0.01c0.008,0 0.015,0.003 0.022,0.01c0.052,0.057 0.117,0.086 0.195,0.086c0.048,-0 0.088,-0.011 0.119,-0.034c0.032,-0.023 0.048,-0.052 0.048,-0.089c0,-0.029 -0.008,-0.053 -0.024,-0.072c-0.015,-0.019 -0.036,-0.034 -0.061,-0.046c-0.025,-0.012 -0.058,-0.024 -0.097,-0.037c-0.043,-0.013 -0.079,-0.027 -0.108,-0.042c-0.029,-0.015 -0.052,-0.036 -0.07,-0.062c-0.018,-0.025 -0.027,-0.058 -0.027,-0.097c-0,-0.035 0.009,-0.067 0.028,-0.094c0.019,-0.027 0.046,-0.049 0.08,-0.065c0.035,-0.015 0.074,-0.023 0.119,-0.023c0.041,-0 0.079,0.007 0.114,0.02c0.036,0.014 0.065,0.034 0.086,0.059c0.01,0.011 0.015,0.021 0.015,0.029c0,0.007 -0.003,0.014 -0.01,0.02c-0.007,0.007 -0.014,0.01 -0.022,0.01c-0.007,-0 -0.012,-0.002 -0.017,-0.007c-0.018,-0.021 -0.042,-0.039 -0.072,-0.052c-0.03,-0.013 -0.061,-0.02 -0.094,-0.02c-0.049,-0 -0.088,0.011 -0.119,0.032c-0.031,0.022 -0.046,0.052 -0.046,0.089c0,0.039 0.015,0.068 0.044,0.089c0.029,0.021 0.071,0.04 0.126,0.057c0.047,0.014 0.086,0.028 0.116,0.043c0.03,0.015 0.055,0.035 0.074,0.062c0.019,0.027 0.028,0.063 0.028,0.107c0,0.034 -0.01,0.065 -0.029,0.092c-0.02,0.028 -0.047,0.05 -0.082,0.066c-0.035,0.016 -0.075,0.024 -0.12,0.024Z" style="fill:#19b390;fill-rule:nonzero;"/>
            </g>
            <g transform="matrix(48,0,0,48,397.792,651.603)">
                <path d="M0.6,-0.701c0.009,0 0.016,0.003 0.022,0.009c0.006,0.005 0.009,0.012 0.009,0.019c0,0.005 -0.001,0.01 -0.003,0.015l-0.267,0.638c-0.003,0.006 -0.007,0.011 -0.012,0.015c-0.005,0.003 -0.011,0.005 -0.017,0.005c-0.006,0 -0.011,-0.002 -0.016,-0.005c-0.005,-0.003 -0.009,-0.008 -0.012,-0.014l-0.266,-0.637c-0.002,-0.004 -0.003,-0.009 -0.003,-0.016c0,-0.009 0.003,-0.016 0.009,-0.021c0.006,-0.005 0.013,-0.008 0.02,-0.008c0.014,0 0.024,0.007 0.03,0.022l0.241,0.576l0.237,-0.578c0.003,-0.006 0.008,-0.011 0.013,-0.015c0.005,-0.003 0.01,-0.005 0.015,-0.005Z" style="fill:#19b390;fill-rule:nonzero;"/>
            </g>
            <g transform="matrix(48,0,0,48,427.264,651.603)">
                <path d="M0.605,-0.353c0.009,0 0.016,0.003 0.021,0.009c0.006,0.005 0.009,0.012 0.009,0.021l0,0.241c0,0.011 -0.005,0.02 -0.015,0.027c-0.03,0.021 -0.063,0.037 -0.1,0.048c-0.037,0.011 -0.074,0.017 -0.112,0.017c-0.068,-0 -0.129,-0.016 -0.184,-0.047c-0.055,-0.031 -0.098,-0.074 -0.129,-0.129c-0.031,-0.055 -0.047,-0.116 -0.047,-0.184c-0,-0.068 0.016,-0.129 0.047,-0.184c0.031,-0.055 0.074,-0.098 0.129,-0.129c0.055,-0.031 0.116,-0.047 0.184,-0.047c0.035,0 0.069,0.004 0.102,0.013c0.033,0.009 0.063,0.021 0.089,0.037c0.009,0.006 0.014,0.014 0.014,0.025c0,0.009 -0.003,0.016 -0.008,0.022c-0.006,0.006 -0.013,0.009 -0.02,0.009c-0.007,0 -0.013,-0.002 -0.018,-0.005c-0.05,-0.027 -0.103,-0.041 -0.159,-0.041c-0.057,0 -0.107,0.013 -0.152,0.039c-0.045,0.026 -0.081,0.062 -0.106,0.108c-0.025,0.045 -0.038,0.096 -0.038,0.153c0,0.057 0.013,0.108 0.038,0.153c0.025,0.046 0.061,0.082 0.106,0.108c0.045,0.026 0.095,0.039 0.152,0.039c0.029,-0 0.058,-0.004 0.087,-0.012c0.029,-0.008 0.054,-0.019 0.077,-0.033l0,-0.198l-0.158,0c-0.009,0 -0.016,-0.003 -0.022,-0.009c-0.006,-0.005 -0.009,-0.012 -0.009,-0.021c0,-0.009 0.003,-0.016 0.009,-0.021c0.006,-0.006 0.013,-0.009 0.022,-0.009l0.191,0Z" style="fill:#19b390;fill-rule:nonzero;"/>
            </g>
            <g transform="matrix(48,0,0,48,460.624,651.603)">
                <path d="M0.283,0.01c-0.048,-0 -0.091,-0.008 -0.128,-0.024c-0.037,-0.016 -0.072,-0.041 -0.107,-0.075c-0.008,-0.007 -0.012,-0.015 -0.012,-0.024c-0,-0.008 0.003,-0.015 0.009,-0.022c0.007,-0.007 0.014,-0.01 0.022,-0.01c0.008,0 0.015,0.003 0.022,0.01c0.052,0.057 0.117,0.086 0.195,0.086c0.048,-0 0.088,-0.011 0.119,-0.034c0.032,-0.023 0.048,-0.052 0.048,-0.089c0,-0.029 -0.008,-0.053 -0.024,-0.072c-0.015,-0.019 -0.036,-0.034 -0.061,-0.046c-0.025,-0.012 -0.058,-0.024 -0.097,-0.037c-0.043,-0.013 -0.079,-0.027 -0.108,-0.042c-0.029,-0.015 -0.052,-0.036 -0.07,-0.062c-0.018,-0.025 -0.027,-0.058 -0.027,-0.097c-0,-0.035 0.009,-0.067 0.028,-0.094c0.019,-0.027 0.046,-0.049 0.08,-0.065c0.035,-0.015 0.074,-0.023 0.119,-0.023c0.041,-0 0.079,0.007 0.114,0.02c0.036,0.014 0.065,0.034 0.086,0.059c0.01,0.011 0.015,0.021 0.015,0.029c0,0.007 -0.003,0.014 -0.01,0.02c-0.007,0.007 -0.014,0.01 -0.022,0.01c-0.007,-0 -0.012,-0.002 -0.017,-0.007c-0.018,-0.021 -0.042,-0.039 -0.072,-0.052c-0.03,-0.013 -0.061,-0.02 -0.094,-0.02c-0.049,-0 -0.088,0.011 -0.119,0.032c-0.031,0.022 -0.046,0.052 -0.046,0.089c0,0.039 0.015,0.068 0.044,0.089c0.029,0.021 0.071,0.04 0.126,0.057c0.047,0.014 0.086,0.028 0.116,0.043c0.03,0.015 0.055,0.035 0.074,0.062c0.019,0.027 0.028,0.063 0.028,0.107c0,0.034 -0.01,0.065 -0.029,0.092c-0.02,0.028 -0.047,0.05 -0.082,0.066c-0.035,0.016 -0.075,0.024 -0.12,0.024Z" style="fill:#fdeb81;fill-rule:nonzero;"/>
            </g>
            <g transform="matrix(48,0,0,48,486.64,651.603)">
                <path d="M0.361,-0.7c0.037,0 0.07,0.009 0.099,0.026c0.029,0.017 0.052,0.04 0.069,0.071c0.016,0.03 0.024,0.064 0.024,0.102c0,0.038 -0.008,0.073 -0.024,0.104c-0.017,0.031 -0.04,0.056 -0.069,0.074c-0.029,0.018 -0.062,0.027 -0.099,0.027l-0.207,0l0,0.266c0,0.009 -0.003,0.016 -0.008,0.021c-0.006,0.006 -0.013,0.009 -0.022,0.009c-0.009,-0 -0.016,-0.003 -0.021,-0.009c-0.006,-0.005 -0.009,-0.012 -0.009,-0.021l0,-0.64c0,-0.009 0.003,-0.016 0.009,-0.022c0.005,-0.005 0.012,-0.008 0.021,-0.008l0.237,0Zm0,0.346c0.039,-0 0.07,-0.014 0.094,-0.042c0.024,-0.028 0.036,-0.063 0.036,-0.105c0,-0.041 -0.012,-0.075 -0.036,-0.101c-0.024,-0.026 -0.055,-0.039 -0.094,-0.039l-0.207,-0l0,0.287l0.207,-0Z" style="fill:#fdeb81;fill-rule:nonzero;"/>
            </g>
            <g transform="matrix(48,0,0,48,514.288,651.603)">
                <path d="M0.157,-0.031c-0.001,0.009 -0.004,0.016 -0.01,0.022c-0.006,0.006 -0.013,0.009 -0.022,0.009c-0.009,-0 -0.017,-0.003 -0.023,-0.009c-0.005,-0.005 -0.008,-0.013 -0.008,-0.022l0,-0.638c0,-0.009 0.003,-0.017 0.009,-0.022c0.006,-0.006 0.014,-0.009 0.023,-0.009c0.009,0 0.016,0.003 0.022,0.009c0.006,0.006 0.009,0.013 0.009,0.022l0,0.638Z" style="fill:#fdeb81;fill-rule:nonzero;"/>
            </g>
            <g transform="matrix(48,0,0,48,524.848,651.603)">
                <path d="M0.605,-0.054c0.01,0.007 0.015,0.015 0.015,0.025c0,0.003 -0.001,0.008 -0.004,0.013c-0.003,0.005 -0.006,0.008 -0.011,0.011c-0.005,0.003 -0.01,0.004 -0.015,0.004c-0.007,-0 -0.012,-0.001 -0.017,-0.004c-0.019,-0.011 -0.034,-0.028 -0.045,-0.052c-0.011,-0.024 -0.017,-0.062 -0.017,-0.115c0,-0.047 -0.013,-0.079 -0.039,-0.099c-0.026,-0.018 -0.057,-0.028 -0.093,-0.028l-0.222,0l0,0.269c0,0.009 -0.003,0.016 -0.008,0.022c-0.005,0.005 -0.012,0.008 -0.021,0.008c-0.009,0 -0.017,-0.003 -0.024,-0.008c-0.007,-0.006 -0.01,-0.013 -0.01,-0.022l0,-0.64c0,-0.009 0.003,-0.016 0.009,-0.021c0.005,-0.006 0.012,-0.009 0.021,-0.009l0.27,0c0.038,0 0.072,0.008 0.102,0.025c0.03,0.016 0.054,0.038 0.071,0.067c0.017,0.029 0.025,0.061 0.025,0.097c0,0.043 -0.011,0.08 -0.033,0.113c-0.023,0.032 -0.052,0.054 -0.088,0.066c0.029,0.011 0.053,0.031 0.072,0.058c0.019,0.027 0.028,0.059 0.029,0.098c0.001,0.041 0.004,0.07 0.009,0.087c0.005,0.017 0.013,0.028 0.024,0.035Zm-0.208,-0.3c0.023,-0.002 0.045,-0.01 0.065,-0.023c0.02,-0.013 0.036,-0.031 0.048,-0.054c0.012,-0.023 0.018,-0.049 0.018,-0.078c0,-0.038 -0.013,-0.069 -0.039,-0.094c-0.025,-0.025 -0.059,-0.038 -0.1,-0.038l-0.232,0l0,0.287l0.24,0Z" style="fill:#fdeb81;fill-rule:nonzero;"/>
            </g>
            <g transform="matrix(48,0,0,48,555.568,651.603)">
                <path d="M0.157,-0.031c-0.001,0.009 -0.004,0.016 -0.01,0.022c-0.006,0.006 -0.013,0.009 -0.022,0.009c-0.009,-0 -0.017,-0.003 -0.023,-0.009c-0.005,-0.005 -0.008,-0.013 -0.008,-0.022l0,-0.638c0,-0.009 0.003,-0.017 0.009,-0.022c0.006,-0.006 0.014,-0.009 0.023,-0.009c0.009,0 0.016,0.003 0.022,0.009c0.006,0.006 0.009,0.013 0.009,0.022l0,0.638Z" style="fill:#fdeb81;fill-rule:nonzero;"/>
            </g>
            <g transform="matrix(48,0,0,48,566.128,651.603)">
                <path d="M0.54,-0.7c0.009,0 0.016,0.003 0.021,0.008c0.006,0.005 0.009,0.012 0.009,0.021c-0,0.009 -0.003,0.016 -0.009,0.021c-0.005,0.005 -0.012,0.007 -0.021,0.007l-0.207,0l0,0.613c0,0.009 -0.003,0.016 -0.009,0.022c-0.006,0.005 -0.013,0.008 -0.022,0.008c-0.009,0 -0.017,-0.003 -0.022,-0.008c-0.006,-0.006 -0.009,-0.013 -0.009,-0.022l0,-0.613l-0.207,0c-0.009,0 -0.016,-0.003 -0.021,-0.008c-0.006,-0.005 -0.009,-0.012 -0.009,-0.021c0,-0.008 0.003,-0.015 0.009,-0.02c0.005,-0.005 0.012,-0.008 0.021,-0.008l0.476,0Z" style="fill:#fdeb81;fill-rule:nonzero;"/>
            </g>
        </g>
    </g>
    <defs>
        <radialGradient id="_Radial1" cx="0" cy="0" r="1" gradientUnits="userSpaceOnUse" gradientTransform="matrix(-25.0418,16.7677,-16.7677,-25.0418,30.6543,11.3401)"><stop offset="0" style="stop-color:#1effb0;stop-opacity:1"/><stop offset="1" style="stop-color:#156e73;stop-opacity:1"/></radialGradient>
        <radialGradient id="_Radial2" cx="0" cy="0" r="1" gradientUnits="userSpaceOnUse" gradientTransform="matrix(18.9801,-10.5284,10.5284,18.9801,19.1108,21.6875)"><stop offset="0" style="stop-color:#faf200;stop-opacity:1"/><stop offset="0.44" style="stop-color:#d4b426;stop-opacity:1"/><stop offset="1" style="stop-color:#7b2380;stop-opacity:1"/></radialGradient>
        <linearGradient id="_Linear3" x1="0" y1="0" x2="1" y2="0" gradientUnits="userSpaceOnUse" gradientTransform="matrix(7.33678,-7.47371,7.47371,7.33678,19.0521,32.0899)"><stop offset="0" style="stop-color:#1be7e8;stop-opacity:1"/><stop offset="1" style="stop-color:#009b9c;stop-opacity:1"/></linearGradient>
        <radialGradient id="_Radial4" cx="0" cy="0" r="1" gradientUnits="userSpaceOnUse" gradientTransform="matrix(0.781529,9.76854,-9.76854,0.781529,15.0591,11.5277)"><stop offset="0" style="stop-color:#bc31c1;stop-opacity:1"/><stop offset="1" style="stop-color:#630967;stop-opacity:1"/></radialGradient>
    </defs>
</svg>
