<?xml version="1.0" encoding="UTF-8" standalone="no"?>
<!DOCTYPE svg PUBLIC "-//W3C//DTD SVG 1.1//EN" "http://www.w3.org/Graphics/SVG/1.1/DTD/svg11.dtd">
<svg width="100%" height="100%" viewBox="0 0 419 86" version="1.1" xmlns="http://www.w3.org/2000/svg" xmlns:xlink="http://www.w3.org/1999/xlink" xml:space="preserve" xmlns:serif="http://www.serif.com/" style="fill-rule:evenodd;clip-rule:evenodd;stroke-linejoin:round;stroke-miterlimit:2;">
    <rect id="logo-light" x="0" y="0" width="418.914" height="85.076" style="fill:none;"/>
    <clipPath id="_clip1">
        <rect id="logo-light1" serif:id="logo-light" x="0" y="0" width="418.914" height="85.076"/>
    </clipPath>
    <g clip-path="url(#_clip1)">
        <path d="M64.46,5.7C84.792,17.438 91.768,43.475 80.03,63.807C68.291,84.139 42.254,91.115 21.922,79.377C1.591,67.638 -5.386,41.601 6.353,21.269C18.091,0.938 44.128,-6.039 64.46,5.7Z" style="fill:url(#_Radial2);"/>
        <path d="M62.643,4.708C63.253,5.022 63.859,5.353 64.46,5.7C66.379,6.807 68.178,8.042 69.855,9.388C62.24,12.689 56.247,21.75 62.914,44.838C70.758,72.005 41.599,76.493 16.447,75.623C14.137,73.76 12.063,71.686 10.237,69.447C26.547,65.649 42.907,56.168 35.08,32.786C26.812,8.086 45.516,3.888 62.643,4.708Z" style="fill:url(#_Radial3);"/>
        <path d="M61.16,43.825C54.493,20.737 62.222,12.79 69.855,9.388C62.24,12.689 56.247,21.75 62.914,44.838C70.758,72.005 41.599,76.493 16.447,75.623C16.044,75.298 15.648,74.966 15.259,74.629C40.28,75.412 68.945,70.788 61.16,43.825Z" style="fill:url(#_Linear4);"/>
        <path d="M62.643,4.708C63.253,5.022 63.859,5.353 64.46,5.7C64.716,5.848 64.971,5.998 65.223,6.151C64.876,5.96 64.528,5.774 64.178,5.594C47.051,4.775 28.346,8.972 36.615,33.672C44.408,56.952 27.395,66.695 11.149,70.528C10.839,70.172 10.534,69.812 10.237,69.447C26.547,65.649 42.907,56.168 35.08,32.786C26.812,8.086 45.516,3.888 62.643,4.708Z" style="fill:url(#_Radial5);"/>
        <g transform="matrix(1.46347,0,0,1.46347,-449.639,-885.94)">
            <g transform="matrix(48,0,0,48,372.736,651.603)">
                <path d="M0.283,0.01C0.235,0.01 0.193,0.002 0.156,-0.014C0.118,-0.03 0.083,-0.055 0.048,-0.089C0.04,-0.096 0.036,-0.104 0.036,-0.113C0.036,-0.121 0.039,-0.128 0.046,-0.135C0.052,-0.142 0.059,-0.145 0.067,-0.145C0.075,-0.145 0.082,-0.142 0.089,-0.135C0.141,-0.078 0.206,-0.049 0.284,-0.049C0.332,-0.049 0.372,-0.06 0.404,-0.083C0.435,-0.106 0.451,-0.135 0.451,-0.172C0.451,-0.201 0.443,-0.225 0.428,-0.244C0.412,-0.263 0.391,-0.278 0.366,-0.29C0.341,-0.302 0.308,-0.314 0.269,-0.327C0.226,-0.34 0.191,-0.354 0.162,-0.369C0.133,-0.384 0.109,-0.405 0.091,-0.431C0.073,-0.456 0.064,-0.489 0.064,-0.528C0.064,-0.563 0.074,-0.595 0.093,-0.622C0.112,-0.649 0.138,-0.671 0.172,-0.687C0.207,-0.702 0.246,-0.71 0.291,-0.71C0.332,-0.71 0.37,-0.703 0.406,-0.69C0.441,-0.676 0.47,-0.656 0.491,-0.631C0.501,-0.62 0.506,-0.61 0.506,-0.602C0.506,-0.595 0.503,-0.588 0.496,-0.582C0.489,-0.575 0.482,-0.572 0.474,-0.572C0.467,-0.572 0.462,-0.574 0.457,-0.579C0.439,-0.6 0.415,-0.618 0.385,-0.631C0.355,-0.644 0.324,-0.651 0.291,-0.651C0.242,-0.651 0.203,-0.64 0.172,-0.619C0.141,-0.597 0.126,-0.567 0.126,-0.53C0.126,-0.491 0.141,-0.462 0.17,-0.441C0.199,-0.42 0.241,-0.401 0.296,-0.384C0.343,-0.37 0.382,-0.356 0.412,-0.341C0.442,-0.326 0.467,-0.306 0.486,-0.279C0.504,-0.252 0.514,-0.216 0.514,-0.172C0.514,-0.138 0.504,-0.107 0.485,-0.08C0.465,-0.052 0.438,-0.03 0.403,-0.014C0.368,0.002 0.328,0.01 0.283,0.01Z" style="fill:#19b390;fill-rule:nonzero;"/>
            </g>
            <g transform="matrix(48,0,0,48,397.792,651.603)">
                <path d="M0.6,-0.701C0.609,-0.701 0.616,-0.698 0.622,-0.693C0.628,-0.687 0.631,-0.68 0.631,-0.673C0.631,-0.668 0.63,-0.663 0.628,-0.658L0.361,-0.02C0.358,-0.014 0.354,-0.009 0.349,-0.006C0.344,-0.002 0.338,-0 0.332,-0C0.326,-0 0.321,-0.002 0.316,-0.005C0.311,-0.008 0.307,-0.013 0.304,-0.019L0.038,-0.656C0.036,-0.66 0.035,-0.665 0.035,-0.672C0.035,-0.681 0.038,-0.688 0.044,-0.693C0.05,-0.698 0.057,-0.701 0.064,-0.701C0.078,-0.701 0.088,-0.694 0.094,-0.679L0.335,-0.103L0.572,-0.681C0.575,-0.687 0.58,-0.692 0.585,-0.696C0.59,-0.699 0.595,-0.701 0.6,-0.701Z" style="fill:#19b390;fill-rule:nonzero;"/>
            </g>
            <g transform="matrix(48,0,0,48,427.264,651.603)">
                <path d="M0.605,-0.353C0.614,-0.353 0.621,-0.35 0.626,-0.344C0.632,-0.339 0.635,-0.332 0.635,-0.323L0.635,-0.082C0.635,-0.071 0.63,-0.062 0.62,-0.055C0.59,-0.034 0.557,-0.018 0.52,-0.007C0.483,0.004 0.446,0.01 0.408,0.01C0.34,0.01 0.279,-0.006 0.224,-0.037C0.169,-0.068 0.126,-0.111 0.095,-0.166C0.064,-0.221 0.048,-0.282 0.048,-0.35C0.048,-0.418 0.064,-0.479 0.095,-0.534C0.126,-0.589 0.169,-0.632 0.224,-0.663C0.279,-0.694 0.34,-0.71 0.408,-0.71C0.443,-0.71 0.477,-0.706 0.51,-0.697C0.544,-0.688 0.573,-0.676 0.599,-0.66C0.608,-0.654 0.613,-0.646 0.613,-0.635C0.613,-0.626 0.61,-0.619 0.605,-0.613C0.599,-0.607 0.592,-0.604 0.585,-0.604C0.578,-0.604 0.572,-0.606 0.567,-0.609C0.517,-0.636 0.464,-0.65 0.408,-0.65C0.351,-0.65 0.301,-0.637 0.256,-0.611C0.211,-0.585 0.175,-0.549 0.15,-0.503C0.125,-0.458 0.112,-0.407 0.112,-0.35C0.112,-0.293 0.125,-0.242 0.15,-0.197C0.175,-0.151 0.211,-0.115 0.256,-0.089C0.301,-0.063 0.351,-0.05 0.408,-0.05C0.437,-0.05 0.466,-0.054 0.495,-0.062C0.524,-0.07 0.549,-0.081 0.572,-0.095L0.572,-0.293L0.414,-0.293C0.405,-0.293 0.398,-0.296 0.392,-0.302C0.386,-0.307 0.383,-0.314 0.383,-0.323C0.383,-0.332 0.386,-0.339 0.392,-0.344C0.398,-0.35 0.405,-0.353 0.414,-0.353L0.605,-0.353Z" style="fill:#19b390;fill-rule:nonzero;"/>
            </g>
            <g transform="matrix(48,0,0,48,460.624,651.603)">
                <path d="M0.283,0.01C0.235,0.01 0.193,0.002 0.156,-0.014C0.118,-0.03 0.083,-0.055 0.048,-0.089C0.04,-0.096 0.036,-0.104 0.036,-0.113C0.036,-0.121 0.039,-0.128 0.046,-0.135C0.052,-0.142 0.059,-0.145 0.067,-0.145C0.075,-0.145 0.082,-0.142 0.089,-0.135C0.141,-0.078 0.206,-0.049 0.284,-0.049C0.332,-0.049 0.372,-0.06 0.404,-0.083C0.435,-0.106 0.451,-0.135 0.451,-0.172C0.451,-0.201 0.443,-0.225 0.428,-0.244C0.412,-0.263 0.391,-0.278 0.366,-0.29C0.341,-0.302 0.308,-0.314 0.269,-0.327C0.226,-0.34 0.191,-0.354 0.162,-0.369C0.133,-0.384 0.109,-0.405 0.091,-0.431C0.073,-0.456 0.064,-0.489 0.064,-0.528C0.064,-0.563 0.074,-0.595 0.093,-0.622C0.112,-0.649 0.138,-0.671 0.172,-0.687C0.207,-0.702 0.246,-0.71 0.291,-0.71C0.332,-0.71 0.37,-0.703 0.406,-0.69C0.441,-0.676 0.47,-0.656 0.491,-0.631C0.501,-0.62 0.506,-0.61 0.506,-0.602C0.506,-0.595 0.503,-0.588 0.496,-0.582C0.489,-0.575 0.482,-0.572 0.474,-0.572C0.467,-0.572 0.462,-0.574 0.457,-0.579C0.439,-0.6 0.415,-0.618 0.385,-0.631C0.355,-0.644 0.324,-0.651 0.291,-0.651C0.242,-0.651 0.203,-0.64 0.172,-0.619C0.141,-0.597 0.126,-0.567 0.126,-0.53C0.126,-0.491 0.141,-0.462 0.17,-0.441C0.199,-0.42 0.241,-0.401 0.296,-0.384C0.343,-0.37 0.382,-0.356 0.412,-0.341C0.442,-0.326 0.467,-0.306 0.486,-0.279C0.504,-0.252 0.514,-0.216 0.514,-0.172C0.514,-0.138 0.504,-0.107 0.485,-0.08C0.465,-0.052 0.438,-0.03 0.403,-0.014C0.368,0.002 0.328,0.01 0.283,0.01Z" style="fill:#9e03dc;fill-rule:nonzero;"/>
            </g>
            <g transform="matrix(48,0,0,48,486.64,651.603)">
                <path d="M0.361,-0.7C0.398,-0.7 0.431,-0.692 0.46,-0.675C0.489,-0.658 0.512,-0.634 0.529,-0.604C0.545,-0.573 0.553,-0.539 0.553,-0.501C0.553,-0.463 0.545,-0.428 0.529,-0.397C0.512,-0.366 0.489,-0.341 0.46,-0.323C0.431,-0.305 0.398,-0.296 0.361,-0.296L0.154,-0.296L0.154,-0.03C0.154,-0.021 0.151,-0.014 0.146,-0.009C0.14,-0.003 0.133,-0 0.124,-0C0.115,-0 0.108,-0.003 0.102,-0.009C0.097,-0.014 0.094,-0.021 0.094,-0.03L0.094,-0.67C0.094,-0.679 0.097,-0.686 0.102,-0.692C0.108,-0.697 0.115,-0.7 0.124,-0.7L0.361,-0.7ZM0.361,-0.354C0.4,-0.354 0.431,-0.368 0.455,-0.396C0.479,-0.424 0.491,-0.459 0.491,-0.501C0.491,-0.542 0.479,-0.576 0.455,-0.602C0.431,-0.628 0.4,-0.641 0.361,-0.641L0.154,-0.641L0.154,-0.354L0.361,-0.354Z" style="fill:#9e03dc;fill-rule:nonzero;"/>
            </g>
            <g transform="matrix(48,0,0,48,514.288,651.603)">
                <path d="M0.157,-0.031C0.156,-0.022 0.153,-0.015 0.147,-0.009C0.141,-0.003 0.134,-0 0.125,-0C0.116,-0 0.108,-0.003 0.102,-0.009C0.097,-0.014 0.094,-0.022 0.094,-0.031L0.094,-0.669C0.094,-0.678 0.097,-0.686 0.103,-0.692C0.109,-0.697 0.117,-0.7 0.126,-0.7C0.135,-0.7 0.142,-0.697 0.148,-0.691C0.154,-0.685 0.157,-0.678 0.157,-0.669L0.157,-0.031Z" style="fill:#9e03dc;fill-rule:nonzero;"/>
            </g>
            <g transform="matrix(48,0,0,48,524.848,651.603)">
                <path d="M0.605,-0.054C0.615,-0.047 0.62,-0.039 0.62,-0.029C0.62,-0.026 0.619,-0.021 0.616,-0.016C0.613,-0.011 0.61,-0.008 0.605,-0.005C0.6,-0.002 0.595,-0.001 0.59,-0.001C0.583,-0.001 0.578,-0.002 0.573,-0.005C0.554,-0.016 0.539,-0.033 0.528,-0.057C0.517,-0.081 0.511,-0.119 0.511,-0.172C0.511,-0.219 0.498,-0.252 0.472,-0.271C0.446,-0.29 0.415,-0.299 0.379,-0.299L0.157,-0.299L0.157,-0.03C0.157,-0.021 0.154,-0.014 0.149,-0.009C0.144,-0.003 0.137,-0 0.128,-0C0.119,-0 0.111,-0.003 0.104,-0.009C0.097,-0.014 0.094,-0.021 0.094,-0.03L0.094,-0.67C0.094,-0.679 0.097,-0.686 0.102,-0.692C0.108,-0.697 0.115,-0.7 0.124,-0.7L0.394,-0.7C0.432,-0.7 0.466,-0.692 0.496,-0.676C0.526,-0.659 0.55,-0.637 0.567,-0.608C0.584,-0.579 0.592,-0.547 0.592,-0.511C0.592,-0.468 0.581,-0.431 0.559,-0.399C0.536,-0.366 0.507,-0.344 0.471,-0.332C0.5,-0.321 0.524,-0.302 0.543,-0.275C0.562,-0.248 0.571,-0.215 0.572,-0.176C0.573,-0.135 0.576,-0.106 0.581,-0.089C0.586,-0.072 0.594,-0.061 0.605,-0.054ZM0.397,-0.354C0.42,-0.356 0.442,-0.364 0.462,-0.377C0.482,-0.39 0.498,-0.408 0.51,-0.431C0.522,-0.454 0.528,-0.48 0.528,-0.509C0.528,-0.547 0.515,-0.579 0.49,-0.604C0.464,-0.628 0.43,-0.641 0.389,-0.641L0.157,-0.641L0.157,-0.354L0.397,-0.354Z" style="fill:#9e03dc;fill-rule:nonzero;"/>
            </g>
            <g transform="matrix(48,0,0,48,555.568,651.603)">
                <path d="M0.157,-0.031C0.156,-0.022 0.153,-0.015 0.147,-0.009C0.141,-0.003 0.134,-0 0.125,-0C0.116,-0 0.108,-0.003 0.102,-0.009C0.097,-0.014 0.094,-0.022 0.094,-0.031L0.094,-0.669C0.094,-0.678 0.097,-0.686 0.103,-0.692C0.109,-0.697 0.117,-0.7 0.126,-0.7C0.135,-0.7 0.142,-0.697 0.148,-0.691C0.154,-0.685 0.157,-0.678 0.157,-0.669L0.157,-0.031Z" style="fill:#9e03dc;fill-rule:nonzero;"/>
            </g>
            <g transform="matrix(48,0,0,48,566.128,651.603)">
                <path d="M0.54,-0.7C0.549,-0.7 0.556,-0.697 0.562,-0.692C0.567,-0.687 0.57,-0.68 0.57,-0.671C0.57,-0.662 0.567,-0.656 0.562,-0.651C0.556,-0.646 0.549,-0.643 0.54,-0.643L0.333,-0.643L0.333,-0.03C0.333,-0.021 0.33,-0.014 0.324,-0.009C0.318,-0.003 0.311,-0 0.302,-0C0.293,-0 0.285,-0.003 0.28,-0.009C0.274,-0.014 0.271,-0.021 0.271,-0.03L0.271,-0.643L0.064,-0.643C0.055,-0.643 0.048,-0.646 0.043,-0.651C0.037,-0.656 0.034,-0.663 0.034,-0.672C0.034,-0.68 0.037,-0.687 0.043,-0.692C0.048,-0.697 0.055,-0.7 0.064,-0.7L0.54,-0.7Z" style="fill:#9e03dc;fill-rule:nonzero;"/>
            </g>
        </g>
    </g>
    <defs>
        <radialGradient id="_Radial2" cx="0" cy="0" r="1" gradientUnits="userSpaceOnUse" gradientTransform="matrix(-58.1485,38.9355,-38.9355,-58.1485,69.9958,24.976)"><stop offset="0" style="stop-color:#1effb0;stop-opacity:1"/><stop offset="1" style="stop-color:#156e73;stop-opacity:1"/></radialGradient>
        <radialGradient id="_Radial3" cx="0" cy="0" r="1" gradientUnits="userSpaceOnUse" gradientTransform="matrix(44.0728,-24.4476,24.4476,44.0728,43.1912,49.003)"><stop offset="0" style="stop-color:#faf200;stop-opacity:1"/><stop offset="0.44" style="stop-color:#d4b426;stop-opacity:1"/><stop offset="1" style="stop-color:#7b2380;stop-opacity:1"/></radialGradient>
        <linearGradient id="_Linear4" x1="0" y1="0" x2="1" y2="0" gradientUnits="userSpaceOnUse" gradientTransform="matrix(17.0364,-17.3544,17.3544,17.0364,43.0549,73.1582)"><stop offset="0" style="stop-color:#1be7e8;stop-opacity:1"/><stop offset="1" style="stop-color:#009b9c;stop-opacity:1"/></linearGradient>
        <radialGradient id="_Radial5" cx="0" cy="0" r="1" gradientUnits="userSpaceOnUse" gradientTransform="matrix(1.81475,22.6831,-22.6831,1.81475,33.7829,25.4115)"><stop offset="0" style="stop-color:#bc31c1;stop-opacity:1"/><stop offset="1" style="stop-color:#630967;stop-opacity:1"/></radialGradient>
    </defs>
</svg>
